<?xml version="1.0" standalone="no"?>
<!DOCTYPE svg PUBLIC "-//W3C//DTD SVG 20010904//EN"
 "http://www.w3.org/TR/2001/REC-SVG-20010904/DTD/svg10.dtd">
<svg version="1.0" xmlns="http://www.w3.org/2000/svg"
 width="152.000000pt" height="152.000000pt" viewBox="0 0 152.000000 152.000000"
 preserveAspectRatio="xMidYMid meet">
<metadata>
Created by potrace 1.11, written by Peter Selinger 2001-2013
</metadata>
<g transform="translate(0.000000,152.000000) scale(0.100000,-0.100000)"
fill="#000000" stroke="none">
<path d="M201 793 c-12 -82 -25 -160 -28 -175 -5 -24 -2 -28 16 -28 23 0 24 3
43 135 l13 89 50 -112 c28 -61 54 -112 58 -114 4 -2 31 48 60 111 l52 114 13
-89 c18 -130 20 -134 43 -134 17 0 19 5 14 33 -7 45 -45 298 -46 311 0 6 -31
-52 -68 -128 l-67 -139 -58 129 c-32 71 -61 132 -65 137 -4 4 -17 -59 -30
-140z"/>
<path d="M1185 916 c-41 -18 -82 -68 -95 -117 -22 -80 14 -158 90 -196 52 -27
85 -29 140 -7 31 13 40 22 40 40 l0 24 -44 -21 c-57 -28 -107 -20 -153 26 -30
30 -33 39 -33 89 0 50 4 61 33 92 43 47 108 57 162 26 l35 -21 0 25 c0 46
-106 70 -175 40z"/>
<path d="M810 805 l0 -45 -45 0 c-25 0 -45 -4 -45 -10 0 -5 20 -10 45 -10 l45
0 0 -45 c0 -33 4 -45 15 -45 11 0 15 12 15 45 l0 45 45 0 c25 0 45 5 45 10 0
6 -20 10 -45 10 l-45 0 0 45 c0 33 -4 45 -15 45 -11 0 -15 -12 -15 -45z"/>
</g>
</svg>
