<?xml version="1.0" standalone="no"?>
<!DOCTYPE svg PUBLIC "-//W3C//DTD SVG 20010904//EN"
 "http://www.w3.org/TR/2001/REC-SVG-20010904/DTD/svg10.dtd">
<svg version="1.0" xmlns="http://www.w3.org/2000/svg"
 width="152.000000pt" height="152.000000pt" viewBox="0 0 152.000000 152.000000"
 preserveAspectRatio="xMidYMid meet">
<metadata>
Created by potrace 1.11, written by Peter Selinger 2001-2013
</metadata>
<g transform="translate(0.000000,152.000000) scale(0.100000,-0.100000)"
fill="#000000" stroke="none">
<path d="M296 1399 c-2 -8 -21 -122 -41 -254 -20 -132 -39 -250 -42 -262 -4
-20 -1 -23 25 -23 27 0 32 4 37 33 9 54 45 307 45 320 0 24 20 -14 100 -191
46 -100 84 -181 85 -180 2 2 40 84 85 183 45 99 85 184 89 188 7 7 52 -289 51
-335 0 -14 8 -18 33 -18 l33 0 -40 275 c-23 151 -43 275 -46 275 -3 0 -50 -97
-104 -216 -54 -118 -102 -211 -106 -207 -4 4 -49 100 -100 213 -51 113 -94
207 -96 209 -2 2 -6 -2 -8 -10z"/>
<path d="M390 718 c-82 -42 -101 -129 -46 -207 25 -34 25 -37 9 -46 -10 -5
-35 -27 -55 -47 -63 -64 -64 -152 -3 -213 66 -65 176 -72 267 -16 l51 32 31
-30 c28 -28 39 -31 91 -31 l59 0 -62 63 c-34 34 -62 66 -62 70 0 4 23 41 50
82 28 41 50 77 50 80 0 3 -22 5 -49 5 -48 0 -50 -1 -81 -50 -18 -27 -34 -50
-35 -50 -2 0 -24 21 -48 47 l-45 47 38 24 c48 32 73 75 73 128 0 76 -47 122
-135 130 -43 4 -62 1 -98 -18z m140 -90 c13 -25 13 -31 0 -55 -8 -14 -28 -35
-43 -47 l-29 -21 -24 28 c-28 33 -32 88 -8 112 26 26 85 16 104 -17z m-42
-281 c59 -60 62 -64 45 -79 -44 -38 -95 -48 -136 -26 -34 17 -46 39 -47 80 0
28 7 42 31 62 17 14 34 26 38 26 3 0 35 -28 69 -63z"/>
<path d="M1051 669 c-68 -34 -103 -73 -132 -149 -50 -132 12 -285 140 -344 66
-30 170 -29 234 2 42 21 47 27 47 58 0 33 -12 45 -26 23 -13 -22 -90 -49 -139
-49 -64 0 -123 28 -162 74 -77 93 -68 222 21 304 74 68 179 75 264 17 l37 -25
3 32 c4 37 -19 59 -79 77 -69 21 -140 14 -208 -20z"/>
</g>
</svg>
